<?xml version="1.0" standalone="no"?>
<!DOCTYPE svg PUBLIC "-//W3C//DTD SVG 20010904//EN"
 "http://www.w3.org/TR/2001/REC-SVG-20010904/DTD/svg10.dtd">
<svg version="1.0" xmlns="http://www.w3.org/2000/svg"
 width="700.000000pt" height="700.000000pt" viewBox="0 0 700.000000 700.000000"
 preserveAspectRatio="xMidYMid meet">
<metadata>
Created by potrace 1.14, written by Peter Selinger 2001-2017
</metadata>
<g transform="translate(0.000000,700.000000) scale(0.100000,-0.100000)"
fill="#000000" stroke="none">
<path d="M2548 6695 c-2 -2 -50 -5 -108 -9 -118 -6 -172 -12 -245 -26 -27 -5
-62 -11 -76 -14 -137 -23 -394 -112 -569 -199 -110 -54 -320 -185 -389 -242
-173 -143 -278 -248 -414 -414 -43 -53 -149 -214 -197 -299 -123 -219 -221
-500 -260 -742 -7 -41 -14 -82 -15 -91 -21 -113 -21 -486 -1 -595 2 -10 7 -41
10 -69 4 -27 11 -68 16 -90 5 -22 11 -51 14 -65 14 -74 78 -281 114 -365 37
-88 143 -294 188 -365 182 -286 449 -551 740 -735 95 -60 342 -185 366 -185 8
0 18 -4 24 -9 28 -27 324 -107 509 -137 120 -19 487 -26 600 -11 443 60 765
188 1141 452 11 8 121 -98 502 -482 956 -964 1811 -1823 1816 -1823 3 0 123
117 267 259 228 225 260 261 248 274 -59 61 -2116 2132 -2196 2211 -57 55
-103 107 -103 114 0 7 13 32 28 55 166 247 299 598 348 919 26 174 30 447 8
618 -34 276 -101 502 -224 755 -166 342 -402 622 -735 872 -112 84 -347 213
-495 271 -98 39 -262 91 -308 98 -20 3 -40 8 -44 10 -20 13 -223 43 -333 50
-110 7 -224 11 -227 9z m146 -746 c39 -1 89 -6 112 -10 23 -4 59 -10 80 -13
164 -21 470 -147 601 -247 l23 -17 -27 -28 c-14 -16 -56 -61 -92 -99 -36 -39
-106 -115 -156 -169 -49 -54 -108 -118 -130 -142 -22 -23 -58 -62 -80 -86 -22
-24 -87 -95 -145 -157 -58 -63 -114 -123 -125 -135 -63 -69 -201 -219 -223
-243 -15 -16 -74 -80 -132 -143 -58 -63 -120 -130 -138 -150 -19 -19 -65 -69
-102 -110 -37 -41 -83 -91 -102 -110 -28 -30 -182 -197 -259 -282 -71 -77
-198 -215 -229 -248 -19 -21 -73 -79 -120 -130 l-84 -92 -23 28 c-152 186
-284 476 -319 699 -3 22 -7 42 -9 45 -6 9 -18 190 -18 260 1 90 12 202 28 280
8 36 16 79 19 94 10 57 60 194 106 291 240 515 757 874 1310 911 52 4 96 7 97
8 1 1 17 1 35 0 18 -2 64 -4 102 -5z m1117 -561 c24 -29 46 -55 50 -58 20 -17
117 -175 158 -258 69 -136 128 -311 146 -432 19 -126 23 -178 23 -280 0 -384
-127 -733 -374 -1030 -258 -311 -631 -511 -1044 -560 -76 -9 -318 -6 -400 5
-209 27 -468 127 -657 252 -115 77 -113 73 -60 130 25 26 56 60 69 74 23 26
192 209 238 259 14 15 70 76 125 136 55 60 114 124 132 142 17 19 65 71 106
115 41 45 90 98 108 118 31 33 189 204 254 274 40 44 196 213 225 244 31 33
218 237 251 272 42 46 193 210 224 244 17 17 54 58 84 91 30 32 99 108 155
168 56 60 108 117 116 127 8 10 18 19 22 19 3 0 26 -24 49 -52z"/>
</g>
</svg>
